<svg width="171" height="100" viewBox="0 0 171 100" fill="none" xmlns="http://www.w3.org/2000/svg">
<path fill-rule="evenodd" clip-rule="evenodd" d="M53 0H168.335C169.81 0 171 1.26415 171 2.83019V6.84906C171 8.33962 169.934 9.56604 168.548 9.67925C166.132 9.86793 164.23 12.0189 164.23 14.566C164.23 17.1132 166.132 19.2642 168.548 19.4717C169.934 19.5849 171 20.8113 171 22.283V30.4717C171 31.9623 169.934 33.1887 168.548 33.3019C166.132 33.4906 164.23 35.6415 164.23 38.1887C164.23 40.7358 166.132 42.8868 168.548 43.0755C169.934 43.1887 171 44.4151 171 45.9057V54.0943C171 55.566 169.934 56.8113 168.548 56.9057C166.132 57.1132 164.23 59.2642 164.23 61.8113C164.23 64.3585 166.132 66.5094 168.548 66.6981C169.934 66.8113 171 68.0377 171 69.5283V77.717C171 79.1887 169.934 80.4151 168.548 80.5283C166.132 80.717 164.23 82.8491 164.23 85.4151C164.23 87.9811 166.132 90.1321 168.548 90.3208C169.934 90.434 171 91.6604 171 93.1321V97.1698C171 98.7358 169.81 100 168.335 100H53H5H2.66521C1.19046 100 0 98.7358 0 97.1698V95V93.1132V77.7359V69.4906V54.1132V45.8868V30.4906V22.2642V6.88679V5V2.83019C0 1.26415 1.19046 0 2.66521 0H5H53Z" fill="#EE4D2D"/>
</svg>
